name Walk3.mot
datacolumns 19
datarows 15
range 4.49100000 4.50500000
endheader

                time	   L_ground_force_vx	   L_ground_force_vy	   L_ground_force_vz	   L_ground_force_px	   L_ground_force_py	   L_ground_force_pz	   R_ground_force_vx	   R_ground_force_vy	   R_ground_force_vz	   R_ground_force_px	   R_ground_force_py	   R_ground_force_pz	   L_ground_torque_x	   L_ground_torque_y	   L_ground_torque_z	   R_ground_torque_x	   R_ground_torque_y	   R_ground_torque_z	
          4.49100000	        -22.92848427	        884.88032746	        -65.69747843	          0.25206001	          0.00000000	          0.11772435	          0.00000000	          0.00000000	          0.00000000	          0.00000000	          0.00000000	          0.00000000	          0.00000000	         10.51830928	          0.00000000	          0.00000000	          0.00000000	          0.00000000	
          4.49200000	        -22.78720195	        884.80590283	        -65.47281169	          0.25241348	          0.00000000	          0.11769509	          0.00000000	          0.00000000	          0.00000000	          0.00000000	          0.00000000	          0.00000000	          0.00000000	         10.48207887	          0.00000000	          0.00000000	          0.00000000	          0.00000000	
          4.49300000	        -22.61159543	        884.80688691	        -65.23855861	          0.25276508	          0.00000000	          0.11764750	          0.00000000	          0.00000000	          0.00000000	          0.00000000	          0.00000000	          0.00000000	          0.00000000	         10.43656868	          0.00000000	          0.00000000	          0.00000000	          0.00000000	
          4.49400000	        -22.40851623	        884.84598035	        -64.99978327	          0.25307723	          0.00000000	          0.11758393	          0.00000000	          0.00000000	          0.00000000	          0.00000000	          0.00000000	          0.00000000	          0.00000000	         10.38660349	          0.00000000	          0.00000000	          0.00000000	          0.00000000	
          4.49500000	        -22.19588585	        884.84211121	        -64.76936272	          0.25331274	          0.00000000	          0.11752004	          0.00000000	          0.00000000	          0.00000000	          0.00000000	          0.00000000	          0.00000000	          0.00000000	         10.33839174	          0.00000000	          0.00000000	          0.00000000	          0.00000000	
          4.49600000	        -21.99168344	        884.75870329	        -64.55594528	          0.25348525	          0.00000000	          0.11747800	          0.00000000	          0.00000000	          0.00000000	          0.00000000	          0.00000000	          0.00000000	          0.00000000	         10.29586057	          0.00000000	          0.00000000	          0.00000000	          0.00000000	
          4.49700000	        -21.80324182	        884.63198142	        -64.35994931	          0.25365865	          0.00000000	          0.11746795	          0.00000000	          0.00000000	          0.00000000	          0.00000000	          0.00000000	          0.00000000	          0.00000000	         10.25988850	          0.00000000	          0.00000000	          0.00000000	          0.00000000	
          4.49800000	        -21.62467998	        884.52409903	        -64.17871508	          0.25389827	          0.00000000	          0.11747979	          0.00000000	          0.00000000	          0.00000000	          0.00000000	          0.00000000	          0.00000000	          0.00000000	         10.22728156	          0.00000000	          0.00000000	          0.00000000	          0.00000000	
          4.49900000	        -21.44734667	        884.47116206	        -64.01296895	          0.25422697	          0.00000000	          0.11749682	          0.00000000	          0.00000000	          0.00000000	          0.00000000	          0.00000000	          0.00000000	          0.00000000	         10.19171221	          0.00000000	          0.00000000	          0.00000000	          0.00000000	
          4.50000000	        -21.26693743	        884.45811302	        -63.86215872	          0.25461479	          0.00000000	          0.11751074	          0.00000000	          0.00000000	          0.00000000	          0.00000000	          0.00000000	          0.00000000	          0.00000000	         10.14820719	          0.00000000	          0.00000000	          0.00000000	          0.00000000	
          4.50100000	        -21.07904244	        884.44333758	        -63.71488509	          0.25500307	          0.00000000	          0.11752292	          0.00000000	          0.00000000	          0.00000000	          0.00000000	          0.00000000	          0.00000000	          0.00000000	         10.09648307	          0.00000000	          0.00000000	          0.00000000	          0.00000000	
          4.50200000	        -20.87981665	        884.41605187	        -63.55593724	          0.25534771	          0.00000000	          0.11753473	          0.00000000	          0.00000000	          0.00000000	          0.00000000	          0.00000000	          0.00000000	          0.00000000	         10.04163625	          0.00000000	          0.00000000	          0.00000000	          0.00000000	
          4.50300000	        -20.67431909	        884.41205936	        -63.38172462	          0.25564532	          0.00000000	          0.11754087	          0.00000000	          0.00000000	          0.00000000	          0.00000000	          0.00000000	          0.00000000	          0.00000000	          9.99099232	          0.00000000	          0.00000000	          0.00000000	          0.00000000	
          4.50400000	        -20.47418211	        884.47967273	        -63.19983199	          0.25592780	          0.00000000	          0.11753827	          0.00000000	          0.00000000	          0.00000000	          0.00000000	          0.00000000	          0.00000000	          0.00000000	          9.94789095	          0.00000000	          0.00000000	          0.00000000	          0.00000000	
          4.50500000	        -20.28529503	        884.63781012	        -63.01885519	          0.25623825	          0.00000000	          0.11753632	          0.00000000	          0.00000000	          0.00000000	          0.00000000	          0.00000000	          0.00000000	          0.00000000	          9.91046927	          0.00000000	          0.00000000	          0.00000000	          0.00000000	
